<svg xmlns="http://www.w3.org/2000/svg" viewBox="-0.000012877147128165234 -9.5367431640625e-7 100.00003051757812 99.99900817871094">
	<g fill="#60ce93">
		<path d="M50 8.926C53.387 3.563 59.367 0 66.176 0c10.559 0 19.117 8.559 19.117 19.117 0 .172 0 .34-.004.512C93.758 21.62 100 29.234 100 38.234c0 4.34-1.457 8.453-4.047 11.766A19.062 19.062 0 0 1 100 61.766c0 9-6.242 16.613-14.71 18.605.003.172.003.34.003.511 0 10.56-8.559 19.117-19.117 19.117-6.809 0-12.789-3.562-16.176-8.925-3.387 5.363-9.367 8.925-16.176 8.925-10.559 0-19.117-8.558-19.117-19.117 0-.171 0-.34.004-.511C6.242 78.379 0 70.765 0 61.766 0 57.426 1.457 53.313 4.047 50A19.062 19.062 0 0 1 0 38.234c0-9 6.242-16.613 14.71-18.605-.003-.172-.003-.34-.003-.512C14.707 8.558 23.266 0 33.824 0 40.633 0 46.613 3.563 50 8.926zm-2.941 71.957V19.117c0-7.309-5.926-13.234-13.234-13.234-7.309 0-13.234 5.926-13.234 13.234 0 .828.074 1.644.222 2.445a2.94 2.94 0 0 1-2.676 3.473c-6.886.504-12.254 6.254-12.254 13.199 0 3.695 1.516 7.14 4.153 9.629a2.941 2.941 0 0 1 0 4.273 13.186 13.186 0 0 0-4.153 9.629c0 6.945 5.368 12.695 12.254 13.199a2.94 2.94 0 0 1 2.676 3.473c-.148.8-.222 1.617-.222 2.445 0 7.309 5.925 13.234 13.234 13.234 7.308 0 13.234-5.926 13.234-13.234zm5.882 0c0 7.308 5.926 13.234 13.234 13.234 7.309 0 13.234-5.926 13.234-13.234 0-.828-.074-1.645-.222-2.446a2.94 2.94 0 0 1 2.676-3.472c6.886-.504 12.254-6.254 12.254-13.2 0-3.695-1.516-7.14-4.153-9.628a2.941 2.941 0 0 1 0-4.274 13.186 13.186 0 0 0 4.153-9.628c0-6.946-5.368-12.695-12.254-13.2a2.94 2.94 0 0 1-2.676-3.472c.148-.8.222-1.617.222-2.445 0-7.309-5.925-13.234-13.234-13.234-7.308 0-13.234 5.925-13.234 13.234zm-29.41-39.707a2.94 2.94 0 1 1 0-5.883c4.872 0 8.82-3.95 8.82-8.824 0-1.621 1.317-2.938 2.942-2.938s2.942 1.317 2.942 2.938c0 8.125-6.582 14.707-14.703 14.707zm38.234-14.707a2.94 2.94 0 0 1 5.883 0c0 4.875 3.95 8.824 8.82 8.824a2.94 2.94 0 1 1 0 5.883c-8.12 0-14.702-6.582-14.702-14.707zM38.235 73.53c0 1.62-1.317 2.937-2.942 2.937s-2.941-1.316-2.941-2.937c0-4.875-3.95-8.824-8.82-8.824a2.94 2.94 0 1 1 0-5.883c8.12 0 14.702 6.582 14.702 14.707zm38.233-14.707a2.94 2.94 0 1 1 0 5.883c-4.87 0-8.82 3.949-8.82 8.824 0 1.62-1.316 2.937-2.941 2.937s-2.942-1.316-2.942-2.937c0-8.125 6.582-14.707 14.703-14.707z">
		</path>
	</g>
</svg>
