<svg xmlns="http://www.w3.org/2000/svg" viewBox="7.429999828338623 -79.69000244140625 330.1700134277344 80.34001159667969">
	<g fill="#fff">
		<path d="M7.43 -79.69L7.43 0L23.48 0L23.48 -52.55L56.75 0L69.57 0L69.57 -79.69L53.63 -79.69L53.63 -27.14L20.24 -79.69Z M101.66 -2.05C105.39 -0.32 110.52 0.54 117.05 0.54C121.15 0.54 124.74 0.32 127.82 -0.11C130.91 -0.54 134.36 -1.15 138.16 -1.94L138.16 -11.31L121.25 -11.31C117.38 -11.31 114.43 -11.68 112.42 -12.44C110.41 -13.19 109.01 -14.41 108.22 -16.1C107.43 -17.79 106.97 -20.17 106.82 -23.26L121.36 -23.26C127.46 -23.26 132.11 -24.44 135.31 -26.81C138.5 -29.18 140.1 -33.17 140.1 -38.77C140.1 -44.01 139.33 -48.06 137.78 -50.94C136.24 -53.81 133.78 -55.82 130.41 -56.97C127.03 -58.11 122.4 -58.69 116.52 -58.69C109.91 -58.69 104.8 -57.83 101.17 -56.1C97.55 -54.38 94.94 -51.38 93.36 -47.11C91.78 -42.84 90.99 -36.76 90.99 -28.86C90.99 -21.18 91.84 -15.22 93.53 -10.98C95.21 -6.75 97.92 -3.77 101.66 -2.05ZM119.75 -32.74L106.61 -32.74C106.61 -36.54 106.93 -39.48 107.58 -41.57C108.22 -43.65 109.25 -45.1 110.65 -45.93C112.05 -46.75 114 -47.17 116.52 -47.17C119.96 -47.17 122.4 -46.54 123.84 -45.28C125.27 -44.03 125.99 -41.82 125.99 -38.66C125.99 -36.51 125.51 -34.98 124.54 -34.08C123.57 -33.19 121.97 -32.74 119.75 -32.74Z M165.46 -3.98C168.37 -0.9 172.44 0.65 177.68 0.65C184.07 0.65 190.6 -1.54 197.28 -5.92L200.08 0L213.33 0L213.33 -57.83L197.28 -57.83L197.28 -17.66C195.63 -16.37 193.75 -15.35 191.63 -14.59C189.51 -13.84 187.45 -13.46 185.44 -13.46C182.64 -13.46 180.54 -14.05 179.14 -15.24C177.74 -16.42 177.04 -18.56 177.04 -21.64L177.04 -57.83L161.1 -57.83L161.1 -16.91C161.1 -11.38 162.55 -7.07 165.46 -3.98Z M236.16 -57.83L236.16 0L252.09 0L252.09 -35.97C254.1 -38.12 256.22 -39.7 258.45 -40.71C260.67 -41.71 263.33 -42.21 266.42 -42.21C267.21 -42.21 269.47 -42.03 273.2 -41.67L273.2 -58.04C271.91 -58.4 270.33 -58.58 268.46 -58.58C265.09 -58.58 262.09 -57.74 259.47 -56.05C256.85 -54.36 254.39 -52.01 252.09 -49L248.43 -57.83Z M291.88 -3.28C294.58 -0.66 298.15 0.65 302.6 0.65C305.47 0.65 308.29 0.25 311.05 -0.54C313.82 -1.33 316.2 -2.26 318.21 -3.34C320.22 -4.42 321.62 -5.35 322.41 -6.14L325 0L337.6 0L337.6 -39.31C337.6 -46.41 335.71 -51.4 331.94 -54.27C328.17 -57.15 322.48 -58.58 314.87 -58.58C306.55 -58.58 298.83 -57.5 291.72 -55.35L291.72 -46.09L309.06 -46.09C312.58 -46.09 315.23 -45.82 317.03 -45.28C318.82 -44.74 320.04 -43.92 320.69 -42.81C321.34 -41.69 321.66 -40.17 321.66 -38.23L321.66 -34.24L306.91 -34.24C300.59 -34.24 295.83 -32.88 292.64 -30.15C289.44 -27.42 287.85 -23.76 287.85 -19.17L287.85 -14C287.85 -9.48 289.19 -5.9 291.88 -3.28ZM317.03 -11.58C314.59 -10.82 312.54 -10.45 310.89 -10.45C306.15 -10.45 303.78 -12.49 303.78 -16.58L303.78 -18.95C303.78 -23.26 306.51 -25.63 311.97 -26.06L321.66 -26.71L321.66 -13.25C321.01 -12.89 319.47 -12.33 317.03 -11.58Z">
		</path>
	</g>
</svg>
