<svg xmlns="http://www.w3.org/2000/svg" viewBox="-0.000011923428246518597 0 100.00003051757812 100">
	<path fill="#fff" d="M50 10.902C52.809 4.484 59.215 0 66.668 0c10.039 0 18.18 8.14 18.18 18.184 0 .586-.027 1.172-.082 1.75C93.446 21.348 100 28.884 100 37.879A18.13 18.13 0 0 1 95.371 50 18.13 18.13 0 0 1 100 62.121c0 8.996-6.555 16.531-15.234 17.945.055.578.082 1.164.082 1.75 0 10.043-8.14 18.184-18.18 18.184-7.453 0-13.859-4.484-16.668-10.902C47.191 95.516 40.785 100 33.332 100c-10.039 0-18.18-8.14-18.18-18.184 0-.586.027-1.172.082-1.75C6.554 78.652 0 71.116 0 62.121A18.13 18.13 0 0 1 4.629 50 18.13 18.13 0 0 1 0 37.879c0-8.996 6.555-16.531 15.234-17.945a18.615 18.615 0 0 1-.082-1.75C15.152 8.141 23.292 0 33.332 0 40.785 0 47.191 4.484 50 10.902zm-1.516 70.914V18.183c0-8.371-6.78-15.152-15.152-15.152-8.367 0-15.148 6.781-15.148 15.152 0 .945.086 1.879.254 2.797a1.514 1.514 0 0 1-1.379 1.789c-7.882.574-14.027 7.16-14.027 15.109 0 4.227 1.739 8.172 4.75 11.02a1.51 1.51 0 0 1 0 2.203 15.115 15.115 0 0 0-4.75 11.02c0 7.95 6.145 14.535 14.027 15.11a1.514 1.514 0 0 1 1.38 1.788 15.52 15.52 0 0 0-.255 2.797c0 8.371 6.782 15.152 15.148 15.152 8.371 0 15.152-6.781 15.152-15.152zm3.032 0c0 8.371 6.78 15.152 15.152 15.152 8.367 0 15.148-6.781 15.148-15.152 0-.945-.086-1.879-.254-2.797a1.514 1.514 0 0 1 1.379-1.789c7.882-.574 14.027-7.16 14.027-15.109 0-4.227-1.739-8.172-4.75-11.02a1.51 1.51 0 0 1 0-2.203 15.115 15.115 0 0 0 4.75-11.02c0-7.95-6.145-14.535-14.027-15.11a1.514 1.514 0 0 1-1.38-1.788 15.52 15.52 0 0 0 .255-2.797c0-8.371-6.782-15.152-15.148-15.152-8.372 0-15.152 6.781-15.152 15.152zm-28.79-42.422a1.517 1.517 0 0 1 0-3.031c5.86 0 10.606-4.75 10.606-10.605 0-.836.68-1.516 1.515-1.516.836 0 1.516.68 1.516 1.516 0 7.531-6.106 13.637-13.637 13.637zm40.91-13.637a1.517 1.517 0 0 1 3.031 0c0 5.856 4.747 10.605 10.606 10.605a1.517 1.517 0 0 1 0 3.031c-7.531 0-13.637-6.105-13.637-13.637zM36.365 74.241a1.517 1.517 0 0 1-3.031 0c0-5.855-4.747-10.605-10.606-10.605a1.517 1.517 0 0 1 0-3.031c7.532 0 13.637 6.105 13.637 13.637zm40.91-13.637a1.517 1.517 0 0 1 0 3.031c-5.86 0-10.605 4.75-10.605 10.605a1.517 1.517 0 0 1-3.031 0c0-7.531 6.105-13.637 13.636-13.637z">
	</path>
</svg>
