<svg xmlns="http://www.w3.org/2000/svg" viewBox="10.40999984741211 -71.5999984741211 341.66998291015625 72.43000793457031">
	<g fill="#60ce93">
		<path d="M57.24 0L65.77 0L65.77 -71.6L57.24 -71.6L57.24 -18.11L56.82 -18.11L19.57 -71.6L10.41 -71.6L10.41 0L19.05 0L19.05 -54.74L19.46 -54.74Z M86.59 0L133.21 0L133.21 -8.33L95.54 -8.33L95.54 -31.95L128.22 -31.95L128.22 -40.28L95.54 -40.28L95.54 -63.28L133.21 -63.28L133.21 -71.6L86.59 -71.6Z M203.25 -71.6L194.3 -71.6L194.3 -27.89C194.3 -21.58 193.97 -17.12 193.32 -14.52C192.66 -11.92 191.1 -10.1 188.63 -9.05C186.17 -8.01 181.95 -7.49 175.99 -7.49C170.02 -7.49 165.79 -8.01 163.29 -9.05C160.79 -10.1 159.2 -11.93 158.5 -14.57C157.81 -17.21 157.46 -21.65 157.46 -27.89L157.46 -71.6L148.62 -71.6L148.62 -31.33C148.62 -22.03 149.22 -15.23 150.44 -10.93C151.65 -6.63 154.13 -3.59 157.88 -1.82C161.63 -0.05 167.66 0.83 175.99 0.83C184.31 0.83 190.35 -0.03 194.1 -1.77C197.84 -3.5 200.31 -6.54 201.49 -10.88C202.66 -15.21 203.25 -22.03 203.25 -31.33Z M267.57 0L277.15 0L264.97 -29.56C269.48 -30.88 272.46 -33.36 273.92 -37C275.38 -40.64 276.11 -44.92 276.11 -49.85C276.11 -54.64 275.65 -58.56 274.75 -61.61C273.85 -64.66 271.94 -67.09 269.03 -68.9C266.11 -70.7 261.81 -71.6 256.12 -71.6L223.24 -71.6L223.24 0L232.19 0L232.19 -28.1L254.67 -28.1L256.44 -28.1ZM262.21 -37.83C260.1 -36.89 256.82 -36.43 252.38 -36.43L232.19 -36.43L232.19 -63.28L253.11 -63.28C257.41 -63.28 260.55 -62.83 262.52 -61.92C264.5 -61.02 265.77 -59.67 266.32 -57.86C266.88 -56.06 267.16 -53.39 267.16 -49.85C267.16 -46.38 266.86 -43.75 266.27 -41.94C265.68 -40.14 264.33 -38.77 262.21 -37.83Z M342.82 0L352.08 0L325.02 -71.6L313.78 -71.6L286.72 0L295.78 0L303.16 -19.05L335.43 -19.05ZM319.5 -61.92L332.62 -27.48L305.87 -27.48L318.98 -61.92Z">
		</path>
	</g>
</svg>
